<?xml version="1.0" encoding="utf-8"?>
<!-- Generator: Adobe Illustrator 27.6.1, SVG Export Plug-In . SVG Version: 6.00 Build 0)  -->
<svg version="1.1" id="Layer_1" xmlns="http://www.w3.org/2000/svg" xmlns:xlink="http://www.w3.org/1999/xlink" x="0px" y="0px"
	 viewBox="0 0 1359.11 258.32" style="enable-background:new 0 0 1359.11 258.32;" xml:space="preserve">
<style type="text/css">
	.st0{fill:#999999;}
</style>	<g class="st0">
		<path d="M0.11,258.28c-0.03-4-0.2-8-0.05-12c0.37-9.74,0.76-19.48,1.4-29.2c0.58-8.89,1.24-17.79,2.33-26.63
			c1.29-10.41,2.86-20.79,4.73-31.11c3.72-20.53,9.34-40.55,17.41-59.83c7.64-18.25,17.39-35.27,30.43-50.23
			C73.09,30.1,93.43,16.23,117.71,8.25c12.9-4.24,26.13-6.56,39.64-7.55c10.32-0.76,20.63-0.92,30.97-0.4
			c27.37,1.35,53.76,6.99,79.06,17.64c16.87,7.1,32.7,16.12,48.27,25.65c11.01,6.74,21.94,13.62,33.03,20.22
			c13.19,7.86,26.87,14.72,41.45,19.67c6.63,2.25,13.38,4.16,20.29,5.25c9.5,1.5,18.99,0.95,28.22-1.75
			c8.94-2.61,17.78-5.59,26.63-8.52c10.75-3.57,21.55-6.94,32.76-8.8c13.15-2.17,26.32-2.57,39.57-0.99
			c15.38,1.83,30.28,5.59,44.77,10.97c23.42,8.69,42.65,23.06,57.67,43.04c9.43,12.55,16.59,26.32,22.07,40.99
			c5.35,14.33,8.97,29.1,11.35,44.19c0.57,3.61,0.99,7.23,1.51,11.05c0.99,0.1,1.88,0.24,2.77,0.26c4.17,0.08,8.33,0.13,12.5,0.19
			c21.66,0.34,43.32,0.66,64.98,1.03c17.91,0.3,35.82,0.65,53.73,0.99c16.99,0.32,33.98,0.67,50.97,1c17.74,0.34,35.48,0.67,53.23,1
			c17.91,0.33,35.82,0.67,53.73,1c17.74,0.33,35.48,0.66,53.22,1c17.16,0.33,34.32,0.67,51.48,1c17.74,0.34,35.48,0.66,53.23,1.01
			c2.58,0.05,5.15,0.32,7.73,0.35c11.03,0.12,21.43-2.48,31.31-7.32c3.62-1.77,6.93-4.01,9.86-6.75c2.84-2.65,6.11-3.88,9.97-3.84
			c6.83,0.07,13.67,0.04,20.5,0.05c0.98,0,1.95,0,3.08,0c0-2.69,0-5.06,0-7.76c-1.64,0-3.12,0.09-4.6-0.02
			c-4.02-0.29-6.83-2.7-7.58-6.4c-1-4.93,0.46-9.03,4.07-10.83c1.22-0.61,2.69-0.94,4.06-0.99c4.16-0.13,8.33-0.1,12.5-0.05
			c5.09,0.07,8.4,3.39,8.45,8.51c0.01,1.48-0.05,3.04-0.51,4.42c-1.14,3.45-3.73,5.2-7.34,5.37c-1.4,0.07-2.81,0.01-4.49,0.01
			c-0.31,2.57-0.09,4.92-0.11,7.2c1.89,0.53,37,0.77,40.37,0.35c0.58-1.85,0.57-4.82-0.09-7.55c-1.09,0-2.24,0.03-3.39,0
			c-5.45-0.15-8.46-3.14-8.65-8.57c-0.02-0.67-0.01-1.33,0.04-2c0.31-4.38,3.31-7.53,7.7-7.69c4.66-0.17,9.34-0.16,14,0.01
			c4.07,0.15,7.17,3.26,7.48,7.36c0.14,1.8,0.17,3.75-0.39,5.41c-1.18,3.46-3.82,5.36-7.57,5.47c-1.31,0.04-2.62,0.01-4.05,0.01
			c0,2.65,0,4.95,0,7.26c1.58,0.52,37.31,0.68,40.2,0.15c0-2.33,0-4.7,0-7.38c-1.27,0-2.41,0-3.55,0c-3.43,0.01-6.37-1.18-7.82-4.37
			c-1.59-3.49-1.57-7.19,0.57-10.53c1.37-2.14,3.56-3.31,6.13-3.36c4.75-0.1,9.5-0.17,14.25,0c3.79,0.13,6.71,2.99,7.25,6.73
			c0.16,1.07,0.28,2.16,0.22,3.23c-0.25,5.05-3.41,8.14-8.45,8.33c-1.22,0.04-2.45,0.01-3.78,0.01c0,2.66,0,5.02,0,7.55
			c0.95,0.04,1.76,0.11,2.57,0.11c8.33,0.01,16.67,0.09,25-0.03c5.3-0.08,9.28,2,12.27,6.34c4.54,6.59,9.12,13.14,13.82,19.61
			c2.21,3.04,3.18,6.36,3.19,10.04c0.02,4.16,0.05,8.33,0.08,12.49C906.11,258.28,453.11,258.28,0.11,258.28z M1252.03,249.54
			c0.59-1.95,0.59-23.83-0.02-26.12c-13.27,0-26.56,0-40.2,0c-0.29,8.7-0.15,17.24-0.1,25.69
			C1213.37,249.68,1248.35,249.98,1252.03,249.54z M1297.36,249.46c0-8.74,0-17.34,0-26.22c-13.53,0.07-26.86-0.14-40.23,0.22
			c0,8.78,0,17.25,0,25.68C1258.93,249.68,1292.68,249.95,1297.36,249.46z M1207.25,223.53c-0.82-0.09-1.3-0.18-1.79-0.18
			c-2.5-0.02-5-0.11-7.49,0c-6.75,0.3-12.04,5.65-12.36,12.41c-0.33,6.87,4.23,12.68,11,13.57c3.2,0.42,6.47,0.23,9.72,0.28
			c0.3,0,0.6-0.23,0.93-0.36C1207.25,240.71,1207.25,232.25,1207.25,223.53z M1302.17,223.36c0,8.79,0,17.3,0,26.04
			c3.52,0,6.93,0.26,10.28-0.06c6-0.56,10.8-5.87,11.13-11.9c0.36-6.63-3.74-12.36-9.91-13.71
			C1309.91,222.92,1306.1,223.52,1302.17,223.36z"/>
	</g>
</svg>
