<?xml version="1.0" encoding="utf-8"?>
<!-- Generator: Adobe Illustrator 27.6.1, SVG Export Plug-In . SVG Version: 6.00 Build 0)  -->
<svg version="1.1" id="Layer_1" xmlns="http://www.w3.org/2000/svg" xmlns:xlink="http://www.w3.org/1999/xlink" x="0px" y="0px"
	 viewBox="0 0 1359.1 258.3" style="enable-background:new 0 0 1359.1 258.3;" xml:space="preserve">
<style type="text/css">
	.st0{fill:#999999;}
	.st1{fill:#FFFFFF;}
	.st2{font-family:'Helvetica';}
	.st3{font-size:60px;}
</style>
<g>
	<path class="st0" d="M0.1,258.3c0-4-0.2-8-0.1-12c0.4-9.7,0.8-19.5,1.4-29.2c0.6-8.9,1.2-17.8,2.3-26.6c1.3-10.4,2.9-20.8,4.7-31.1
		c3.7-20.5,9.3-40.6,17.4-59.8c7.6-18.2,17.4-35.3,30.4-50.2c16.7-19.2,37.1-33,61.3-41c12.9-4.2,26.1-6.6,39.6-7.6
		c10.3-0.8,20.6-0.9,31-0.4c27.4,1.4,53.8,7,79.1,17.6c16.9,7.1,32.7,16.1,48.3,25.6c11,6.7,21.9,13.6,33,20.2
		c13.2,7.9,26.9,14.7,41.5,19.7c6.6,2.2,13.4,4.2,20.3,5.2c9.5,1.5,19,0.9,28.2-1.8c8.9-2.6,17.8-5.6,26.6-8.5
		c10.8-3.6,21.5-6.9,32.8-8.8c13.1-2.2,26.3-2.6,39.6-1c15.4,1.8,30.3,5.6,44.8,11c23.4,8.7,42.7,23.1,57.7,43
		c9.4,12.6,16.6,26.3,22.1,41c5.3,14.3,9,29.1,11.3,44.2c0.6,3.6,1,7.2,1.5,11.1c1,0.1,1.9,0.2,2.8,0.3c4.2,0.1,8.3,0.1,12.5,0.2
		c21.7,0.3,43.3,0.7,65,1c17.9,0.3,35.8,0.6,53.7,1c17,0.3,34,0.7,51,1c17.7,0.3,35.5,0.7,53.2,1c17.9,0.3,35.8,0.7,53.7,1
		c17.7,0.3,35.5,0.7,53.2,1c17.2,0.3,34.3,0.7,51.5,1c17.7,0.3,35.5,0.7,53.2,1c2.6,0.1,5.2,0.3,7.7,0.4c11,0.1,21.4-2.5,31.3-7.3
		c3.6-1.8,6.9-4,9.9-6.8c2.8-2.6,6.1-3.9,10-3.8c6.8,0.1,13.7,0,20.5,0.1c1,0,1.9,0,3.1,0c0-2.7,0-5.1,0-7.8c-1.6,0-3.1,0.1-4.6,0
		c-4-0.3-6.8-2.7-7.6-6.4c-1-4.9,0.5-9,4.1-10.8c1.2-0.6,2.7-0.9,4.1-1c4.2-0.1,8.3-0.1,12.5-0.1c5.1,0.1,8.4,3.4,8.4,8.5
		c0,1.5-0.1,3-0.5,4.4c-1.1,3.4-3.7,5.2-7.3,5.4c-1.4,0.1-2.8,0-4.5,0c-0.3,2.6-0.1,4.9-0.1,7.2c1.9,0.5,37,0.8,40.4,0.4
		c0.6-1.9,0.6-4.8-0.1-7.6c-1.1,0-2.2,0-3.4,0c-5.4-0.1-8.5-3.1-8.7-8.6c0-0.7,0-1.3,0-2c0.3-4.4,3.3-7.5,7.7-7.7
		c4.7-0.2,9.3-0.2,14,0c4.1,0.1,7.2,3.3,7.5,7.4c0.1,1.8,0.2,3.8-0.4,5.4c-1.2,3.5-3.8,5.4-7.6,5.5c-1.3,0-2.6,0-4.1,0
		c0,2.6,0,4.9,0,7.3c1.6,0.5,37.3,0.7,40.2,0.1c0-2.3,0-4.7,0-7.4c-1.3,0-2.4,0-3.6,0c-3.4,0-6.4-1.2-7.8-4.4
		c-1.6-3.5-1.6-7.2,0.6-10.5c1.4-2.1,3.6-3.3,6.1-3.4c4.8-0.1,9.5-0.2,14.2,0c3.8,0.1,6.7,3,7.2,6.7c0.2,1.1,0.3,2.2,0.2,3.2
		c-0.2,5.1-3.4,8.1-8.4,8.3c-1.2,0-2.4,0-3.8,0c0,2.7,0,5,0,7.6c0.9,0,1.8,0.1,2.6,0.1c8.3,0,16.7,0.1,25,0c5.3-0.1,9.3,2,12.3,6.3
		c4.5,6.6,9.1,13.1,13.8,19.6c2.2,3,3.2,6.4,3.2,10c0,4.2,0.1,8.3,0.1,12.5C906.1,258.3,453.1,258.3,0.1,258.3z M1252,249.5
		c0.6-1.9,0.6-23.8,0-26.1c-13.3,0-26.6,0-40.2,0c-0.3,8.7-0.2,17.2-0.1,25.7C1213.4,249.7,1248.3,250,1252,249.5z M1297.4,249.5
		c0-8.7,0-17.3,0-26.2c-13.5,0.1-26.9-0.1-40.2,0.2c0,8.8,0,17.2,0,25.7C1258.9,249.7,1292.7,249.9,1297.4,249.5z M1207.2,223.5
		c-0.8-0.1-1.3-0.2-1.8-0.2c-2.5,0-5-0.1-7.5,0c-6.8,0.3-12,5.6-12.4,12.4c-0.3,6.9,4.2,12.7,11,13.6c3.2,0.4,6.5,0.2,9.7,0.3
		c0.3,0,0.6-0.2,0.9-0.4C1207.2,240.7,1207.2,232.2,1207.2,223.5z M1302.2,223.4c0,8.8,0,17.3,0,26c3.5,0,6.9,0.3,10.3-0.1
		c6-0.6,10.8-5.9,11.1-11.9c0.4-6.6-3.7-12.4-9.9-13.7C1309.9,222.9,1306.1,223.5,1302.2,223.4z"/>
</g>
<text transform="matrix(1 0 0 1 110.0005 218.8105)" class="st1 st2 st3">Paulo Bittencourt</text>
</svg>
